<svg xmlns="http://www.w3.org/2000/svg" xmlns:xlink="http://www.w3.org/1999/xlink" width="2000" zoomAndPan="magnify" viewBox="0 0 1500 1499.999933" height="2000" preserveAspectRatio="xMidYMid meet" version="1.0"><defs><g/><clipPath id="f1dd3eca26"><path d="M 0 131 L 317 131 L 317 506 L 0 506 Z M 0 131 " clip-rule="nonzero"/></clipPath><clipPath id="1d629312df"><rect x="0" width="1500" y="0" height="731"/></clipPath></defs><rect x="-150" width="1800" fill="#ffffff" y="-149.999993" height="1799.99992" fill-opacity="1"/><rect x="-150" width="1800" fill="#ffffff" y="-149.999993" height="1799.99992" fill-opacity="1"/><g transform="matrix(1, 0, 0, 1, 0, 330)"><g clip-path="url(#1d629312df)"><g clip-path="url(#f1dd3eca26)"><g fill="#1e1e1e" fill-opacity="1"><g transform="translate(-13.437276, 505.907985)"><g><path d="M 330 0 L 223.921875 0 L 242.453125 -26.9375 L 223.359375 -95.96875 L 84.1875 -95.96875 L 64.546875 -26.9375 L 83.0625 0 L 11.21875 0 L 46.015625 -26.9375 L 139.1875 -355.8125 L 163.3125 -374.328125 L 196.984375 -374.328125 L 294.640625 -26.9375 Z M 153.78125 -344.03125 L 97.09375 -141.984375 L 209.890625 -141.984375 Z M 86.984375 -107.75 L 220 -107.75 L 213.265625 -130.765625 L 93.71875 -130.765625 Z M 86.984375 -107.75 "/></g></g></g></g><g fill="#1e1e1e" fill-opacity="1"><g transform="translate(299.725711, 505.907985)"><g><path d="M 336.734375 -176.21875 L 314.84375 -141.421875 L 102.140625 -14.59375 L 117.296875 0 L 11.21875 0 L 38.15625 -26.9375 L 38.15625 -347.390625 L 11.21875 -374.328125 L 117.296875 -374.328125 L 99.328125 -356.375 Z M 90.359375 -68.46875 L 281.734375 -182.953125 L 90.359375 -327.75 Z M 90.359375 -68.46875 "/></g></g></g><g fill="#1e1e1e" fill-opacity="1"><g transform="translate(619.623284, 505.907985)"><g><path d="M 293.515625 -237.953125 C 296.878906 -215.128906 297.71875 -190.898438 296.03125 -165.265625 C 294.351562 -139.640625 289.304688 -115.226562 280.890625 -92.03125 C 272.472656 -68.84375 259.84375 -48.828125 243 -31.984375 C 226.164062 -15.148438 204.28125 -4.113281 177.34375 1.125 C 175.84375 1.5 174.4375 1.6875 173.125 1.6875 C 171.820312 1.6875 170.421875 1.875 168.921875 2.25 C 167.054688 2.625 165.1875 2.90625 163.3125 3.09375 C 161.445312 3.28125 159.578125 3.375 157.703125 3.375 C 157.328125 3.375 156.859375 3.375 156.296875 3.375 C 155.734375 3.375 155.078125 3.375 154.328125 3.375 C 154.328125 3.375 154.234375 3.375 154.046875 3.375 C 153.867188 3.375 153.78125 3.375 153.78125 3.375 C 151.15625 3.375 148.71875 3.28125 146.46875 3.09375 C 144.226562 2.90625 141.988281 2.625 139.75 2.25 C 139.75 2.25 139.65625 2.25 139.46875 2.25 C 139.28125 2.25 139.1875 2.25 139.1875 2.25 C 137.6875 1.875 136.28125 1.6875 134.96875 1.6875 C 133.664062 1.6875 132.265625 1.5 130.765625 1.125 C 103.828125 -4.113281 81.9375 -15.148438 65.09375 -31.984375 C 48.257812 -48.828125 35.632812 -68.84375 27.21875 -92.03125 C 18.800781 -115.226562 13.75 -139.640625 12.0625 -165.265625 C 10.382812 -190.898438 11.226562 -215.128906 14.59375 -237.953125 C 14.96875 -240.953125 15.4375 -243.851562 16 -246.65625 C 16.5625 -249.457031 17.023438 -252.359375 17.390625 -255.359375 C 19.265625 -263.960938 21.601562 -272.566406 24.40625 -281.171875 C 27.21875 -289.773438 30.679688 -298.191406 34.796875 -306.421875 C 45.273438 -326.253906 59.773438 -342.625 78.296875 -355.53125 C 96.816406 -368.4375 117.113281 -376.203125 139.1875 -378.828125 C 141.800781 -379.203125 144.320312 -379.476562 146.75 -379.65625 C 149.1875 -379.84375 151.53125 -379.9375 153.78125 -379.9375 L 154.328125 -379.9375 C 156.953125 -379.9375 159.382812 -379.84375 161.625 -379.65625 C 163.875 -379.476562 166.304688 -379.203125 168.921875 -378.828125 C 190.992188 -376.203125 211.289062 -368.4375 229.8125 -355.53125 C 248.332031 -342.625 262.832031 -326.253906 273.3125 -306.421875 C 277.425781 -298.191406 280.976562 -289.773438 283.96875 -281.171875 C 286.96875 -272.566406 289.21875 -263.960938 290.71875 -255.359375 C 291.457031 -252.359375 292.015625 -249.457031 292.390625 -246.65625 C 292.765625 -243.851562 293.140625 -240.953125 293.515625 -237.953125 Z M 183.515625 -17.390625 C 193.242188 -25.628906 201.566406 -36.671875 208.484375 -50.515625 C 215.410156 -64.359375 221.304688 -79.414062 226.171875 -95.6875 C 231.035156 -111.957031 234.585938 -128.226562 236.828125 -144.5 C 239.078125 -160.78125 240.203125 -175.285156 240.203125 -188.015625 C 240.203125 -217.941406 235.992188 -247.679688 227.578125 -277.234375 C 219.160156 -306.796875 205.410156 -333.738281 186.328125 -358.0625 C 181.460938 -364.789062 174.910156 -369.273438 166.671875 -371.515625 C 158.441406 -373.765625 150.210938 -373.765625 141.984375 -371.515625 C 133.753906 -369.273438 127.019531 -364.789062 121.78125 -358.0625 C 103.070312 -332.988281 89.414062 -305.113281 80.8125 -274.4375 C 72.207031 -243.757812 67.90625 -214.953125 67.90625 -188.015625 C 67.90625 -175.285156 69.023438 -160.78125 71.265625 -144.5 C 73.515625 -128.226562 77.070312 -111.957031 81.9375 -95.6875 C 86.800781 -79.414062 92.785156 -64.359375 99.890625 -50.515625 C 107.003906 -36.671875 115.238281 -25.628906 124.59375 -17.390625 C 133.195312 -10.285156 143.109375 -6.734375 154.328125 -6.734375 C 165.554688 -6.734375 175.285156 -10.285156 183.515625 -17.390625 Z M 183.515625 -17.390625 "/></g></g></g><g fill="#1e1e1e" fill-opacity="1"><g transform="translate(899.673967, 505.907985)"><g><path d="M 255.921875 -347.390625 L 255.921875 -26.9375 L 282.859375 0 L 176.78125 0 L 203.71875 -26.9375 L 203.71875 -355.8125 L 90.359375 -355.8125 L 90.359375 -26.9375 L 117.296875 0 L 11.21875 0 L 38.15625 -26.9375 L 38.15625 -347.390625 L 11.21875 -374.328125 L 282.859375 -374.328125 Z M 255.921875 -347.390625 "/></g></g></g><g fill="#1e1e1e" fill-opacity="1"><g transform="translate(1165.694084, 505.907985)"><g><path d="M 90.359375 -347.390625 L 90.359375 -26.9375 L 117.296875 0 L 11.21875 0 L 38.15625 -26.9375 L 38.15625 -347.390625 L 11.21875 -374.328125 L 117.296875 -374.328125 Z M 90.359375 -347.390625 "/></g></g></g><g fill="#1e1e1e" fill-opacity="1"><g transform="translate(1266.152993, 505.907985)"><g><path d="M 228.421875 -328.875 L 202.03125 -355.8125 L 58.921875 -355.8125 L 228.421875 -52.1875 L 228.421875 0 L 11.21875 0 L 11.21875 -79.125 L 38.15625 -52.1875 L 174.53125 -52.1875 L 11.21875 -347.390625 L 11.21875 -374.328125 L 228.421875 -374.328125 Z M 228.421875 -328.875 "/></g></g></g><g fill="#1e1e1e" fill-opacity="1"><g transform="translate(136.203711, 674.978036)"><g><path d="M 57.75 -113.828125 L 91.765625 -28.28125 C 93.453125 -24.019531 95.023438 -20.234375 96.484375 -16.921875 C 97.941406 -13.609375 99.398438 -11.054688 100.859375 -9.265625 C 102.203125 -7.578125 103.96875 -6.285156 106.15625 -5.390625 C 108.34375 -4.492188 111.289062 -3.875 115 -3.53125 L 115 0.34375 C 110.394531 0.226562 106.632812 0.113281 103.71875 0 C 100.800781 -0.113281 98.5 -0.195312 96.8125 -0.25 C 95.132812 -0.3125 93.875 -0.34375 93.03125 -0.34375 C 92.1875 -0.34375 91.539062 -0.34375 91.09375 -0.34375 C 90.53125 -0.34375 89.851562 -0.34375 89.0625 -0.34375 C 88.28125 -0.34375 87.019531 -0.3125 85.28125 -0.25 C 83.539062 -0.195312 81.179688 -0.113281 78.203125 0 C 75.234375 0.113281 71.390625 0.226562 66.671875 0.34375 L 66.671875 -3.53125 C 71.722656 -3.53125 75.144531 -4.0625 76.9375 -5.125 C 78.738281 -6.195312 79.640625 -7.859375 79.640625 -10.109375 C 79.640625 -12.679688 78.96875 -15.820312 77.625 -19.53125 L 69.703125 -40.40625 L 28.125 -40.40625 L 22.390625 -25.59375 C 19.804688 -18.851562 18.515625 -13.96875 18.515625 -10.9375 C 18.515625 -8.582031 19.382812 -6.816406 21.125 -5.640625 C 22.863281 -4.460938 26.539062 -3.757812 32.15625 -3.53125 L 32.15625 0.34375 C 26.09375 0.113281 21.628906 -0.0546875 18.765625 -0.171875 C 15.910156 -0.285156 14.203125 -0.34375 13.640625 -0.34375 C 13.078125 -0.34375 11.445312 -0.285156 8.75 -0.171875 C 6.0625 -0.0546875 1.851562 0.113281 -3.875 0.34375 L -3.875 -3.53125 C -1.519531 -3.757812 0.359375 -4.097656 1.765625 -4.546875 C 3.171875 -4.992188 4.320312 -5.5 5.21875 -6.0625 C 6.675781 -6.84375 7.9375 -7.9375 9 -9.34375 C 10.070312 -10.75 11.453125 -13.414062 13.140625 -17.34375 C 14.035156 -19.476562 15.128906 -22.03125 16.421875 -25 C 17.710938 -27.976562 19.253906 -31.515625 21.046875 -35.609375 C 22.835938 -39.703125 24.851562 -44.554688 27.09375 -50.171875 C 29.34375 -55.785156 31.929688 -62.296875 34.859375 -69.703125 C 35.972656 -72.734375 37.375 -76.410156 39.0625 -80.734375 C 40.75 -85.054688 42.429688 -89.347656 44.109375 -93.609375 C 45.796875 -97.878906 47.367188 -101.863281 48.828125 -105.5625 C 50.285156 -109.269531 51.351562 -112.023438 52.03125 -113.828125 Z M 30.3125 -45.796875 L 67.515625 -45.796875 L 49 -93.28125 Z M 30.3125 -45.796875 "/></g></g></g><g fill="#1e1e1e" fill-opacity="1"><g transform="translate(233.857547, 674.978036)"><g><path d="M 66.84375 -113.140625 C 73.238281 -113.140625 79.410156 -112.328125 85.359375 -110.703125 C 91.316406 -109.078125 96.816406 -106.359375 101.859375 -102.546875 L 105.40625 -110.125 L 107.25 -110.125 L 105.40625 -76.78125 L 101.859375 -76.78125 C 101.523438 -81.71875 100.488281 -86.207031 98.75 -90.25 C 97.007812 -94.289062 94.707031 -97.710938 91.84375 -100.515625 C 88.988281 -103.328125 85.59375 -105.488281 81.65625 -107 C 77.726562 -108.519531 73.460938 -109.28125 68.859375 -109.28125 C 55.617188 -109.28125 45.65625 -104.507812 38.96875 -94.96875 C 32.289062 -85.425781 28.953125 -71.28125 28.953125 -52.53125 C 28.953125 -36.707031 32.289062 -24.390625 38.96875 -15.578125 C 45.65625 -6.765625 55.113281 -2.359375 67.34375 -2.359375 C 76.21875 -2.359375 83.125 -4.488281 88.0625 -8.75 C 93 -13.019531 95.46875 -19.304688 95.46875 -27.609375 C 95.46875 -32.660156 94.484375 -36.195312 92.515625 -38.21875 C 90.554688 -40.238281 86.710938 -41.472656 80.984375 -41.921875 L 80.984375 -45.796875 L 125.109375 -45.796875 L 125.109375 -41.921875 C 121.515625 -41.921875 118.875 -41.160156 117.1875 -39.640625 C 115.5 -38.128906 114.65625 -34.90625 114.65625 -29.96875 L 114.65625 -11.28125 C 112.414062 -11.28125 110.476562 -11.222656 108.84375 -11.109375 C 107.21875 -10.992188 105.703125 -10.769531 104.296875 -10.4375 C 102.898438 -10.101562 101.523438 -9.65625 100.171875 -9.09375 C 98.828125 -8.53125 97.316406 -7.742188 95.640625 -6.734375 C 89.242188 -3.023438 83.6875 -0.613281 78.96875 0.5 C 74.25 1.625 69.421875 2.1875 64.484375 2.1875 C 56.066406 2.1875 48.378906 0.84375 41.421875 -1.84375 C 34.460938 -4.539062 28.507812 -8.273438 23.5625 -13.046875 C 18.625 -17.816406 14.78125 -23.539062 12.03125 -30.21875 C 9.28125 -36.894531 7.90625 -44.222656 7.90625 -52.203125 C 7.90625 -60.953125 9.335938 -69.054688 12.203125 -76.515625 C 15.066406 -83.984375 19.078125 -90.441406 24.234375 -95.890625 C 29.398438 -101.335938 35.601562 -105.570312 42.84375 -108.59375 C 50.09375 -111.625 58.09375 -113.140625 66.84375 -113.140625 Z M 66.84375 -113.140625 "/></g></g></g><g fill="#1e1e1e" fill-opacity="1"><g transform="translate(350.031951, 674.978036)"><g><path d="M 4.375 -111.125 C 6.84375 -111.125 9.5625 -111.066406 12.53125 -110.953125 C 15.507812 -110.847656 18.429688 -110.765625 21.296875 -110.703125 C 24.160156 -110.648438 26.796875 -110.59375 29.203125 -110.53125 C 31.617188 -110.476562 33.503906 -110.453125 34.859375 -110.453125 C 35.867188 -110.453125 37.660156 -110.453125 40.234375 -110.453125 C 42.816406 -110.453125 45.765625 -110.476562 49.078125 -110.53125 C 52.390625 -110.59375 55.953125 -110.648438 59.765625 -110.703125 C 63.585938 -110.765625 67.296875 -110.820312 70.890625 -110.875 C 74.484375 -110.925781 77.789062 -110.976562 80.8125 -111.03125 C 83.84375 -111.09375 86.257812 -111.125 88.0625 -111.125 L 88.0625 -85.703125 L 84.1875 -85.703125 C 83.40625 -91.203125 82.003906 -95.46875 79.984375 -98.5 C 78.066406 -101.414062 75.425781 -103.488281 72.0625 -104.71875 C 68.695312 -105.957031 63.363281 -106.578125 56.0625 -106.578125 L 39.90625 -106.578125 C 38.5625 -106.578125 37.890625 -106.070312 37.890625 -105.0625 L 37.890625 -59.765625 L 40.75 -59.765625 C 45.570312 -59.765625 49.523438 -60.210938 52.609375 -61.109375 C 55.703125 -62.015625 58.117188 -63.335938 59.859375 -65.078125 C 61.597656 -66.816406 62.859375 -68.976562 63.640625 -71.5625 C 64.429688 -74.144531 64.992188 -77.117188 65.328125 -80.484375 L 69.203125 -80.484375 C 69.203125 -79.359375 69.171875 -77.867188 69.109375 -76.015625 C 69.054688 -74.171875 69 -72.179688 68.9375 -70.046875 C 68.882812 -67.910156 68.800781 -65.75 68.6875 -63.5625 C 68.582031 -61.375 68.53125 -59.378906 68.53125 -57.578125 C 68.53125 -56.796875 68.582031 -54.859375 68.6875 -51.765625 C 68.800781 -48.679688 68.972656 -43.660156 69.203125 -36.703125 L 65.328125 -36.703125 C 64.765625 -40.523438 63.945312 -43.640625 62.875 -46.046875 C 61.8125 -48.460938 60.296875 -50.34375 58.328125 -51.6875 C 56.367188 -53.039062 53.875 -53.96875 50.84375 -54.46875 C 47.8125 -54.976562 44.050781 -55.234375 39.5625 -55.234375 L 37.890625 -55.234375 L 37.890625 -25.421875 C 37.890625 -21.492188 38.164062 -18.179688 38.71875 -15.484375 C 39.28125 -12.796875 40.40625 -10.609375 42.09375 -8.921875 C 43.78125 -7.234375 46.164062 -6.023438 49.25 -5.296875 C 52.332031 -4.566406 56.398438 -4.203125 61.453125 -4.203125 C 67.398438 -4.203125 72.335938 -4.625 76.265625 -5.46875 C 80.203125 -6.3125 83.347656 -7.628906 85.703125 -9.421875 C 88.054688 -11.222656 89.820312 -13.582031 91 -16.5 C 92.1875 -19.414062 93.054688 -22.953125 93.609375 -27.109375 L 97.484375 -27.109375 L 95.96875 0.34375 C 94.507812 0.34375 92.289062 0.3125 89.3125 0.25 C 86.34375 0.195312 83.003906 0.171875 79.296875 0.171875 C 75.597656 0.171875 71.644531 0.113281 67.4375 0 C 63.226562 -0.113281 59.210938 -0.171875 55.390625 -0.171875 C 51.578125 -0.171875 48.125 -0.195312 45.03125 -0.25 C 41.945312 -0.3125 39.566406 -0.34375 37.890625 -0.34375 C 37.210938 -0.34375 36.335938 -0.34375 35.265625 -0.34375 C 34.203125 -0.34375 32.460938 -0.3125 30.046875 -0.25 C 27.640625 -0.195312 24.382812 -0.113281 20.28125 0 C 16.1875 0.113281 10.882812 0.226562 4.375 0.34375 L 4.375 -3.53125 L 5.71875 -3.53125 C 9.875 -3.53125 12.820312 -3.953125 14.5625 -4.796875 C 16.300781 -5.640625 17.566406 -6.734375 18.359375 -8.078125 C 19.253906 -9.648438 19.84375 -12.539062 20.125 -16.75 C 20.40625 -20.957031 20.546875 -25.476562 20.546875 -30.3125 L 20.546875 -80.484375 C 20.546875 -82.617188 20.546875 -84.695312 20.546875 -86.71875 C 20.546875 -88.738281 20.429688 -90.8125 20.203125 -92.9375 C 19.984375 -95.519531 19.703125 -97.707031 19.359375 -99.5 C 19.023438 -101.300781 18.320312 -102.734375 17.25 -103.796875 C 16.1875 -104.867188 14.703125 -105.65625 12.796875 -106.15625 C 10.890625 -106.664062 8.363281 -106.921875 5.21875 -106.921875 L 4.375 -106.921875 Z M 4.375 -111.125 "/></g></g></g><g fill="#1e1e1e" fill-opacity="1"><g transform="translate(446.002112, 674.978036)"><g><path d="M 3.703125 -111.125 C 5.046875 -111.125 6.53125 -111.066406 8.15625 -110.953125 C 9.789062 -110.847656 11.363281 -110.765625 12.875 -110.703125 C 14.394531 -110.648438 15.769531 -110.59375 17 -110.53125 C 18.238281 -110.476562 19.140625 -110.453125 19.703125 -110.453125 C 20.828125 -110.453125 22.765625 -110.535156 25.515625 -110.703125 C 28.265625 -110.867188 30.757812 -111.007812 33 -111.125 L 104.0625 -24.421875 L 104.390625 -24.421875 L 104.390625 -71.21875 C 104.390625 -78.738281 104.21875 -85.132812 103.875 -90.40625 C 103.539062 -95.6875 102.644531 -99.5625 101.1875 -102.03125 C 100.070312 -103.9375 98.613281 -105.140625 96.8125 -105.640625 C 95.019531 -106.148438 92.046875 -106.6875 87.890625 -107.25 L 87.890625 -111.125 C 89.347656 -111.125 90.972656 -111.066406 92.765625 -110.953125 C 94.566406 -110.847656 96.304688 -110.765625 97.984375 -110.703125 C 99.671875 -110.648438 101.269531 -110.59375 102.78125 -110.53125 C 104.300781 -110.476562 105.507812 -110.453125 106.40625 -110.453125 C 106.96875 -110.453125 108.847656 -110.507812 112.046875 -110.625 C 115.253906 -110.738281 119.328125 -110.90625 124.265625 -111.125 L 124.265625 -107.25 C 122.128906 -107.144531 120.359375 -106.953125 118.953125 -106.671875 C 117.554688 -106.390625 116.4375 -106.050781 115.59375 -105.65625 C 114.75 -105.257812 114.070312 -104.753906 113.5625 -104.140625 C 113.0625 -103.523438 112.644531 -102.820312 112.3125 -102.03125 C 111.75 -100.800781 111.269531 -98.921875 110.875 -96.390625 C 110.476562 -93.867188 110.164062 -91.117188 109.9375 -88.140625 C 109.71875 -85.171875 109.578125 -82.171875 109.515625 -79.140625 C 109.460938 -76.109375 109.4375 -73.523438 109.4375 -71.390625 L 109.4375 2.1875 L 104.390625 2.1875 L 27.4375 -91.59375 L 27.109375 -91.59375 L 27.109375 -33.5 C 27.109375 -26.65625 27.359375 -21.351562 27.859375 -17.59375 C 28.367188 -13.832031 29.128906 -11.054688 30.140625 -9.265625 C 30.703125 -8.253906 31.347656 -7.410156 32.078125 -6.734375 C 32.804688 -6.054688 33.703125 -5.519531 34.765625 -5.125 C 35.835938 -4.738281 37.128906 -4.40625 38.640625 -4.125 C 40.160156 -3.84375 42.039062 -3.644531 44.28125 -3.53125 L 44.28125 0.34375 C 38.894531 0.113281 34.710938 -0.0546875 31.734375 -0.171875 C 28.765625 -0.285156 26.492188 -0.34375 24.921875 -0.34375 C 24.691406 -0.34375 23.988281 -0.3125 22.8125 -0.25 C 21.632812 -0.195312 20.175781 -0.140625 18.4375 -0.078125 C 16.695312 -0.0234375 14.734375 0.0234375 12.546875 0.078125 C 10.359375 0.140625 8.253906 0.226562 6.234375 0.34375 L 6.234375 -3.53125 C 10.835938 -3.875 14.0625 -4.519531 15.90625 -5.46875 C 17.757812 -6.425781 19.082031 -7.691406 19.875 -9.265625 C 20.65625 -10.941406 21.210938 -13.578125 21.546875 -17.171875 C 21.890625 -20.765625 22.0625 -26.207031 22.0625 -33.5 L 22.0625 -97.15625 C 20.707031 -99.0625 19.410156 -100.660156 18.171875 -101.953125 C 16.941406 -103.242188 15.625 -104.253906 14.21875 -104.984375 C 12.820312 -105.710938 11.28125 -106.269531 9.59375 -106.65625 C 7.914062 -107.050781 5.953125 -107.25 3.703125 -107.25 Z M 3.703125 -111.125 "/></g></g></g><g fill="#1e1e1e" fill-opacity="1"><g transform="translate(565.543884, 674.978036)"><g><path d="M 3.53125 -111.125 C 4.4375 -111.125 6.175781 -111.09375 8.75 -111.03125 C 11.332031 -110.976562 14.335938 -110.953125 17.765625 -110.953125 C 21.191406 -110.953125 24.867188 -110.894531 28.796875 -110.78125 C 32.722656 -110.675781 36.484375 -110.625 40.078125 -110.625 C 43.671875 -110.625 46.867188 -110.59375 49.671875 -110.53125 C 52.472656 -110.476562 54.492188 -110.453125 55.734375 -110.453125 C 57.191406 -110.453125 59.351562 -110.476562 62.21875 -110.53125 C 65.082031 -110.59375 68.304688 -110.625 71.890625 -110.625 C 75.484375 -110.625 79.1875 -110.675781 83 -110.78125 C 86.820312 -110.894531 90.390625 -110.953125 93.703125 -110.953125 C 97.015625 -110.953125 99.875 -110.976562 102.28125 -111.03125 C 104.695312 -111.09375 106.242188 -111.125 106.921875 -111.125 L 108.4375 -84.859375 L 103.890625 -84.859375 C 103.546875 -88.671875 102.984375 -91.925781 102.203125 -94.625 C 101.421875 -97.320312 100.128906 -99.484375 98.328125 -101.109375 C 96.535156 -102.734375 94.09375 -103.910156 91 -104.640625 C 87.914062 -105.367188 83.960938 -105.734375 79.140625 -105.734375 C 75.765625 -105.734375 73.09375 -105.648438 71.125 -105.484375 C 69.164062 -105.316406 67.679688 -105.007812 66.671875 -104.5625 C 65.660156 -104.113281 65.015625 -103.550781 64.734375 -102.875 C 64.453125 -102.195312 64.3125 -101.351562 64.3125 -100.34375 L 64.3125 -20.703125 C 64.3125 -17.117188 64.648438 -14.257812 65.328125 -12.125 C 66.003906 -9.988281 67.070312 -8.300781 68.53125 -7.0625 C 69.988281 -5.832031 71.921875 -4.992188 74.328125 -4.546875 C 76.742188 -4.097656 79.640625 -3.757812 83.015625 -3.53125 L 83.015625 0.34375 C 81.773438 0.34375 79.78125 0.3125 77.03125 0.25 C 74.28125 0.195312 71.445312 0.113281 68.53125 0 C 65.613281 -0.113281 62.863281 -0.195312 60.28125 -0.25 C 57.695312 -0.3125 55.957031 -0.34375 55.0625 -0.34375 C 54.382812 -0.34375 52.953125 -0.3125 50.765625 -0.25 C 48.578125 -0.195312 46.109375 -0.113281 43.359375 0 C 40.609375 0.113281 37.859375 0.195312 35.109375 0.25 C 32.359375 0.3125 30.082031 0.34375 28.28125 0.34375 L 28.28125 -3.53125 C 32.101562 -3.644531 35.21875 -4.007812 37.625 -4.625 C 40.039062 -5.25 41.953125 -6.234375 43.359375 -7.578125 C 44.765625 -8.921875 45.71875 -10.660156 46.21875 -12.796875 C 46.726562 -14.929688 46.984375 -17.566406 46.984375 -20.703125 L 46.984375 -101.03125 C 46.984375 -102.9375 46.054688 -104.195312 44.203125 -104.8125 C 42.347656 -105.425781 38.554688 -105.734375 32.828125 -105.734375 C 28.234375 -105.734375 24.363281 -105.535156 21.21875 -105.140625 C 18.070312 -104.753906 15.515625 -103.832031 13.546875 -102.375 C 11.585938 -100.914062 10.128906 -98.8125 9.171875 -96.0625 C 8.222656 -93.3125 7.632812 -89.578125 7.40625 -84.859375 L 3.53125 -84.859375 Z M 3.53125 -111.125 "/></g></g></g><path stroke-linecap="butt" transform="matrix(1.052304, 0.000000000000000456, -0.000000000000000456, 1.052304, 129.649856, 717.792778)" fill="none" stroke-linejoin="miter" d="M -0.00134779 0.501314 L 525.211654 0.501314 " stroke="#000000" stroke-width="1" stroke-opacity="1" stroke-miterlimit="4"/></g></g></svg>